<?xml version="1.0" standalone="no"?>
<!DOCTYPE svg PUBLIC "-//W3C//DTD SVG 20010904//EN"
 "http://www.w3.org/TR/2001/REC-SVG-20010904/DTD/svg10.dtd">
<svg version="1.0" xmlns="http://www.w3.org/2000/svg"
 width="814.000000pt" height="814.000000pt" viewBox="0 0 814.000000 814.000000"
 preserveAspectRatio="xMidYMid meet">

<g transform="translate(0.000000,814.000000) scale(0.100000,-0.100000)"
fill="#000000" stroke="none">
<path d="M4195 6890 c-70 -10 -177 -48 -255 -92 -160 -89 -311 -282 -370 -471
-26 -82 -25 -109 5 -137 14 -13 25 -29 25 -35 0 -6 8 -38 19 -71 10 -32 24
-86 31 -119 16 -73 35 -109 67 -126 43 -23 57 -3 65 92 8 94 31 179 61 224 30
45 195 212 253 255 111 83 267 140 427 156 60 6 68 9 73 31 27 106 -266 89
-499 -29 -62 -31 -194 -137 -263 -211 -37 -39 -76 -95 -99 -141 -48 -98 -70
-102 -62 -13 6 74 50 186 103 263 104 150 305 277 493 310 79 14 91 23 91 66
0 22 -7 28 -47 42 -26 9 -49 15 -52 15 -3 -1 -33 -5 -66 -9z"/>
<path d="M3200 6788 c-99 -161 -140 -521 -85 -741 54 -220 178 -382 245 -322
11 10 20 23 20 30 0 6 -20 49 -44 96 -76 146 -88 198 -94 405 -5 199 7 277 66
446 33 95 27 112 -41 116 -43 3 -48 1 -67 -30z"/>
<path d="M3526 6787 c-91 -97 -169 -352 -170 -557 -1 -230 89 -428 170 -375
29 19 30 34 3 144 -17 67 -22 119 -23 236 -1 136 2 159 27 250 16 56 52 144
80 198 l52 99 -24 19 c-36 30 -78 25 -115 -14z"/>
<path d="M2706 6587 c-45 -33 -6 -388 58 -532 76 -170 145 -269 252 -356 72
-60 119 -72 146 -39 10 12 18 30 18 40 0 9 -34 52 -75 95 -98 102 -157 192
-205 312 -53 132 -78 255 -79 385 -1 56 -5 71 -23 88 -25 23 -66 26 -92 7z"/>
<path d="M4630 6554 c-168 -24 -284 -60 -374 -116 -105 -64 -282 -231 -339
-318 -58 -91 -32 -278 41 -288 38 -6 49 13 55 93 8 114 39 169 152 281 79 77
111 101 188 139 138 67 195 79 377 80 148 0 159 -2 251 -33 53 -18 103 -30
112 -27 23 9 38 51 27 79 -23 62 -200 117 -366 115 -55 -1 -110 -3 -124 -5z"/>
<path d="M4580 6244 c-157 -24 -215 -49 -296 -125 -73 -70 -98 -132 -91 -225
8 -110 54 -187 158 -265 172 -130 432 -206 849 -249 141 -14 188 -25 302 -72
111 -46 164 -87 239 -186 55 -73 79 -139 79 -220 0 -71 -21 -112 -89 -173
-107 -96 -249 -154 -531 -215 -174 -39 -177 -39 -295 -72 -218 -61 -447 -164
-550 -249 -121 -99 -185 -225 -185 -362 0 -130 46 -243 170 -415 95 -134 155
-258 181 -376 38 -173 14 -304 -85 -463 -55 -88 -94 -126 -174 -166 -31 -16
-66 -39 -77 -51 -41 -46 -158 -86 -223 -78 -23 4 -48 0 -63 -8 -43 -24 -129
-14 -294 33 -145 42 -171 53 -213 93 -57 56 -77 113 -62 183 11 56 70 190 88
201 5 3 13 -5 16 -19 3 -13 16 -33 27 -44 l21 -20 -49 -49 c-82 -82 -105 -158
-60 -200 12 -11 45 -31 72 -43 44 -20 65 -23 169 -22 146 2 196 13 314 69 84
41 97 51 143 112 72 97 139 241 142 303 2 44 -1 54 -26 75 -58 49 -88 24 -124
-102 -13 -48 -33 -103 -43 -123 -25 -49 -92 -117 -140 -141 -72 -37 -71 -27
12 74 46 55 63 127 36 154 -20 20 -56 14 -75 -14 -133 -188 -215 -266 -283
-268 -67 -2 -48 45 71 180 75 85 88 115 82 184 -6 59 -16 78 -48 90 -27 10
-63 -10 -98 -55 -28 -35 -105 -91 -114 -82 -2 3 5 24 17 46 19 39 99 131 282
326 98 105 150 186 185 288 23 69 27 98 27 182 -1 87 -5 110 -32 178 -65 168
-229 314 -395 352 -97 23 -299 23 -387 0 -111 -28 -202 -101 -216 -172 -5 -25
-1 -34 22 -52 37 -29 67 -23 147 31 85 58 117 67 232 68 210 0 357 -80 442
-242 26 -50 28 -61 28 -174 0 -119 0 -121 -38 -197 -42 -84 -100 -160 -212
-277 -113 -118 -190 -219 -238 -310 -25 -47 -49 -85 -55 -85 -6 0 -43 49 -82
109 -120 181 -266 306 -356 306 -36 0 -47 -5 -61 -26 -15 -24 -15 -29 -2 -52
8 -15 35 -40 59 -56 64 -42 176 -158 244 -254 32 -46 56 -85 54 -87 -3 -3 -34
16 -69 43 -183 137 -387 243 -481 250 -46 4 -63 1 -78 -13 -49 -44 -10 -92
117 -145 100 -42 202 -97 332 -182 57 -37 126 -75 152 -83 46 -15 67 -31 57
-41 -3 -2 -38 5 -79 16 -516 140 -579 150 -614 96 -24 -36 -5 -73 48 -96 42
-19 170 -52 380 -100 53 -12 97 -26 97 -30 0 -8 -23 -13 -175 -35 -125 -18
-174 -34 -199 -68 -18 -25 -18 -27 -2 -52 30 -46 55 -49 238 -31 172 17 278
35 358 59 l45 13 54 -48 c91 -83 204 -129 366 -149 50 -7 96 -16 103 -22 13
-11 16 -95 4 -115 -5 -7 -55 -19 -113 -28 -118 -17 -169 -37 -222 -84 -51 -44
-50 -79 4 -145 53 -64 64 -71 162 -104 45 -16 109 -42 142 -58 71 -36 233 -91
290 -99 46 -6 95 -23 95 -33 0 -3 -213 -7 -473 -7 -570 -2 -716 -14 -732 -64
-11 -33 12 -57 62 -69 27 -5 138 -13 248 -17 162 -5 222 -3 317 11 100 15 171
16 495 12 208 -3 392 -8 408 -11 70 -12 379 -10 510 3 77 8 248 15 380 16 289
3 318 11 301 80 -5 18 -16 27 -44 34 -20 5 -197 12 -392 16 -470 9 -521 9
-752 0 -135 -5 -198 -4 -198 3 0 5 25 24 55 41 43 24 67 31 109 31 58 0 120
22 173 62 66 50 254 264 336 381 234 338 322 564 318 820 -1 99 -19 143 -65
162 -51 22 -83 19 -154 -15 -116 -55 -235 -164 -331 -304 -44 -63 -113 -215
-146 -317 -15 -46 -32 -100 -39 -119 l-12 -35 -62 2 c-68 1 -85 10 -109 56
l-15 30 90 86 c127 122 233 297 261 429 23 111 8 273 -39 406 -30 88 -87 187
-180 316 -45 63 -96 143 -113 178 -27 59 -29 69 -25 155 3 78 8 100 33 146 54
99 167 177 358 245 128 47 280 89 412 115 400 80 570 147 699 276 45 45 62 55
110 65 95 19 106 44 81 187 -29 172 -64 253 -161 375 -93 116 -200 187 -364
242 -86 28 -136 38 -270 50 -493 48 -688 108 -825 257 -57 62 -71 100 -56 149
17 57 54 95 129 132 63 31 73 33 172 33 118 0 164 -13 263 -73 56 -34 60 -35
85 -21 19 10 28 24 30 45 2 25 -5 38 -43 73 -58 54 -113 77 -228 96 -130 22
-139 23 -167 19z m540 -3483 c0 -89 -12 -121 -44 -121 -31 0 -147 -52 -192
-86 -61 -47 -83 -113 -44 -134 23 -12 27 -11 96 41 54 42 120 73 127 61 3 -4
-2 -28 -10 -54 -13 -47 -15 -48 -53 -48 -29 0 -42 -5 -50 -19 -5 -11 -6 -22
-1 -25 15 -10 21 -64 10 -96 -11 -31 -20 -35 -98 -44 -71 -7 -92 -30 -125
-132 -42 -130 -84 -231 -122 -295 -43 -71 -67 -93 -93 -84 -28 9 -27 42 5 143
14 45 24 94 22 109 -3 24 -7 28 -31 26 -16 -1 -51 -16 -79 -34 l-49 -32 -97
11 c-53 6 -134 14 -179 18 -98 7 -113 19 -120 99 -6 67 9 89 71 106 l41 11 55
-60 c30 -33 65 -65 77 -71 38 -19 198 -13 274 9 93 28 93 27 198 284 72 175
220 369 345 451 28 18 54 34 59 34 4 1 7 -30 7 -68z m-234 -643 c-8 -45 -51
-97 -66 -81 -19 18 -2 70 32 98 36 31 43 27 34 -17z m-968 -181 c14 -40 47
-59 137 -81 158 -39 218 -61 252 -92 32 -30 33 -34 33 -109 0 -66 -2 -76 -16
-71 -9 3 -28 9 -42 12 -15 3 -44 12 -65 20 -52 19 -67 18 -67 -7 0 -19 -4 -21
-37 -16 -21 3 -115 45 -209 92 -94 47 -202 96 -240 109 -115 39 -97 66 56 85
92 12 116 22 148 62 30 37 35 36 50 -4z"/>
<path d="M2408 6184 c-26 -57 39 -231 135 -359 59 -79 166 -181 246 -234 147
-100 274 -132 299 -76 19 41 -2 70 -76 105 -222 106 -405 293 -467 479 -29 89
-48 111 -94 111 -24 0 -34 -6 -43 -26z"/>
<path d="M2195 5699 c-26 -16 -35 -29 -35 -56 0 -24 43 -63 70 -63 10 0 123
-53 251 -118 243 -122 334 -155 461 -167 59 -5 70 -3 88 15 50 50 15 89 -106
119 -119 30 -218 70 -344 141 -208 116 -335 159 -385 129z"/>
<path d="M4219 5367 c-34 -18 -51 -36 -73 -80 -33 -64 -45 -167 -27 -233 12
-46 70 -118 112 -139 94 -49 206 24 229 147 8 44 7 73 -6 134 -20 99 -48 151
-96 175 -49 25 -85 24 -139 -4z"/>
<path d="M2226 5330 c-41 -13 -66 -39 -66 -69 0 -56 35 -71 165 -71 102 0 176
-13 330 -60 112 -34 311 -66 349 -56 34 8 56 33 56 61 0 35 -22 51 -92 64 -35
7 -117 28 -183 48 -229 68 -306 84 -420 88 -60 3 -123 1 -139 -5z"/>
<path d="M4521 5316 c-60 -72 -6 -236 78 -236 83 0 98 148 23 233 -18 21 -85
23 -101 3z"/>
<path d="M2428 5019 c-212 -31 -360 -129 -290 -192 26 -23 45 -22 158 14 90
29 112 32 239 33 77 0 201 -1 276 -4 126 -5 139 -3 158 14 31 28 25 77 -10 93
-84 40 -383 64 -531 42z"/>
<path d="M2715 4753 c-55 -8 -191 -51 -236 -73 -129 -66 -272 -200 -305 -285
l-18 -48 23 -18 c41 -33 75 -25 117 29 77 98 143 142 294 197 82 29 302 75
363 75 83 0 133 59 88 103 -20 20 -32 22 -159 23 -75 1 -150 0 -167 -3z"/>
<path d="M2745 4526 c-184 -60 -310 -158 -385 -301 -37 -70 -40 -132 -10 -160
37 -33 70 -11 111 75 71 146 159 199 464 280 114 31 156 77 103 114 -36 25
-195 21 -283 -8z"/>
<path d="M3067 4389 c-138 -20 -217 -60 -309 -157 -70 -73 -110 -156 -116
-243 -3 -52 -1 -69 13 -82 38 -39 91 -8 115 68 23 71 48 111 102 160 54 49
195 123 277 145 61 16 91 38 91 66 0 49 -49 61 -173 43z"/>
<path d="M4071 3456 c-7 -8 -15 -52 -18 -98 -5 -72 -3 -86 12 -101 24 -25 57
-17 73 15 18 37 19 162 3 182 -17 20 -55 21 -70 2z"/>
<path d="M4276 3303 c-3 -10 6 -63 19 -118 16 -66 25 -128 25 -182 0 -73 2
-84 21 -93 34 -18 63 -8 82 30 51 97 -37 380 -118 380 -14 0 -26 -7 -29 -17z"/>
<path d="M3781 3215 c-11 -14 -23 -40 -27 -57 -5 -27 -2 -36 20 -55 15 -13 33
-23 41 -23 20 0 54 47 61 88 6 29 3 39 -16 54 -31 25 -55 23 -79 -7z"/>
<path d="M4344 2812 c-17 -11 -30 -42 -44 -102 -9 -38 -24 -66 -46 -90 -57
-58 -72 -142 -27 -148 31 -5 69 36 84 89 7 25 29 62 50 84 52 55 67 135 31
163 -18 14 -32 15 -48 4z"/>
<path d="M4025 2439 c-18 -23 -25 -41 -23 -63 4 -45 27 -39 61 17 45 73 15
109 -38 46z"/>
<path d="M5870 1401 c0 -23 35 -34 50 -15 16 18 4 34 -26 34 -17 0 -24 -6 -24
-19z"/>
<path d="M6582 710 c-12 -5 -27 -22 -33 -36 -6 -17 -9 -140 -7 -330 3 -276 5
-305 21 -321 17 -17 65 -18 797 -21 l780 -2 0 104 c0 101 -1 105 -22 108 -19
2 -23 10 -25 43 -1 34 0 36 5 11 11 -47 29 -42 36 10 3 26 6 136 6 245 l0 199
-767 -1 c-436 0 -778 -4 -791 -9z m238 -246 c0 -30 -4 -54 -10 -54 -6 0 -10
27 -10 61 0 37 4 58 10 54 6 -3 10 -31 10 -61z m580 56 c0 -5 -4 -10 -10 -10
-5 0 -10 5 -10 10 0 6 5 10 10 10 6 0 10 -4 10 -10z m60 0 c0 -5 -7 -10 -15
-10 -21 0 -19 -20 3 -20 16 -1 16 -1 0 -14 -10 -7 -18 -25 -18 -40 0 -14 -4
-26 -10 -26 -13 0 -13 76 0 101 11 20 40 27 40 9z m-682 -37 c2 -16 -4 -26
-22 -35 -14 -6 -26 -17 -26 -25 0 -7 -4 -13 -10 -13 -5 0 -10 23 -10 51 l0 50
33 -3 c24 -2 33 -8 35 -25z m120 -15 c2 -12 -5 -18 -25 -21 -27 -4 -27 -5 -5
-12 27 -9 29 -25 2 -25 -27 0 -44 34 -30 61 13 24 53 22 58 -3z m70 -21 c3
-37 2 -38 -25 -35 -36 4 -43 35 -11 47 17 7 19 10 6 10 -10 1 -18 6 -18 12 0
6 10 9 23 7 18 -2 23 -10 25 -41z m72 33 c0 -5 -8 -10 -17 -10 -15 0 -15 -1 2
-14 23 -16 14 -46 -15 -46 -24 0 -27 20 -2 20 16 1 16 2 -2 15 -11 8 -16 21
-13 30 7 16 47 21 47 5z m78 -12 c2 -12 -5 -18 -25 -21 -27 -4 -27 -5 -5 -12
27 -9 29 -25 2 -25 -27 0 -44 34 -30 61 13 24 53 22 58 -3z m70 -5 l10 -28 7
28 c4 15 12 27 17 27 6 0 7 -7 4 -16 -3 -9 -9 -27 -12 -40 -9 -34 -23 -30 -40
11 -17 40 -17 45 -5 45 5 0 14 -12 19 -27z m112 7 c9 -18 8 -20 -15 -20 -14 0
-25 -4 -25 -10 0 -5 9 -10 20 -10 11 0 20 -4 20 -10 0 -14 -33 -13 -48 2 -23
23 -7 68 25 68 7 0 17 -9 23 -20z m58 6 c-10 -7 -18 -25 -18 -40 0 -14 -4 -26
-10 -26 -11 0 -14 63 -3 73 3 4 16 7 27 7 20 -1 20 -2 4 -14z m42 -26 c0 -22
-4 -40 -10 -40 -5 0 -10 18 -10 40 0 22 5 40 10 40 6 0 10 -18 10 -40z m90 21
c0 -11 5 -23 10 -26 6 -3 10 3 10 14 0 18 17 38 25 30 8 -9 -38 -109 -51 -109
-8 0 -14 5 -14 10 0 6 5 10 11 10 11 0 10 6 -7 68 -4 13 -2 22 5 22 6 0 11 -9
11 -19z m108 -8 l10 -28 7 28 c4 15 11 27 16 27 11 0 2 -44 -18 -82 -13 -27
-43 -39 -43 -18 0 6 7 10 16 10 11 0 14 5 9 18 -16 40 -23 72 -15 72 5 0 13
-12 18 -27z m110 15 c17 -17 15 -43 -4 -59 -31 -26 -70 25 -44 56 15 18 32 19
48 3z m42 -18 c0 -20 5 -30 15 -30 10 0 15 10 15 30 0 17 5 30 10 30 6 0 10
-16 10 -35 0 -39 -21 -55 -49 -38 -18 11 -28 73 -12 73 6 0 11 -13 11 -30z
m110 20 c0 -5 -4 -10 -10 -10 -5 0 -10 -13 -10 -30 0 -16 -4 -30 -10 -30 -5 0
-10 18 -10 40 0 33 3 40 20 40 11 0 20 -4 20 -10z m98 -33 c3 -37 2 -38 -25
-35 -36 4 -43 35 -11 47 17 7 19 10 6 10 -10 1 -18 6 -18 12 0 6 10 9 23 7 18
-2 23 -10 25 -41z m80 -9 c-3 -49 -5 -53 -30 -56 -16 -2 -28 1 -28 7 0 6 9 11
20 11 11 0 20 4 20 9 0 5 -9 11 -20 14 -13 3 -20 14 -20 29 0 31 7 38 37 38
23 0 24 -3 21 -52z m82 32 c9 -18 8 -20 -15 -20 -14 0 -25 -4 -25 -10 0 -5 9
-10 20 -10 11 0 20 -4 20 -10 0 -14 -33 -13 -48 2 -23 23 -7 68 25 68 7 0 17
-9 23 -20z m-1163 -172 c-3 -7 -5 -2 -5 12 0 14 2 19 5 13 2 -7 2 -19 0 -25z
m297 -87 c-1 -1 -7 0 -13 4 -12 7 -15 98 -3 109 6 7 22 -104 16 -113z m86 59
c0 -57 -1 -60 -24 -60 -48 0 -62 56 -19 75 12 5 24 17 26 27 10 35 17 17 17
-42z m480 36 c0 -8 9 -16 20 -19 15 -4 20 -14 20 -41 0 -20 -4 -36 -10 -36 -5
0 -10 14 -10 30 0 17 -4 30 -10 30 -5 0 -10 -13 -10 -30 0 -16 -4 -30 -10 -30
-6 0 -10 27 -10 61 0 37 4 58 10 54 6 -3 10 -12 10 -19z m110 -6 c0 -5 8 -10
18 -10 16 -1 16 -1 0 -14 -22 -16 -24 -46 -3 -46 8 0 15 -5 15 -11 0 -6 -10
-9 -22 -7 -20 3 -23 10 -26 51 -2 28 1 47 7 47 6 0 11 -4 11 -10z m-1202 -37
l10 -28 7 28 c4 15 11 27 16 27 11 0 2 -44 -18 -82 -13 -27 -43 -39 -43 -18 0
6 7 10 16 10 11 0 14 5 9 18 -16 40 -23 72 -15 72 5 0 13 -12 18 -27z m110 15
c17 -17 15 -43 -4 -59 -31 -26 -70 25 -44 56 15 18 32 19 48 3z m42 -18 c0
-20 5 -30 15 -30 10 0 15 10 15 30 0 17 5 30 10 30 6 0 10 -16 10 -35 0 -39
-21 -55 -49 -38 -18 11 -28 73 -12 73 6 0 11 -13 11 -30z m140 20 c0 -5 -4
-10 -10 -10 -5 0 -10 -13 -10 -30 0 -16 -4 -30 -10 -30 -5 0 -10 18 -10 40 0
33 3 40 20 40 11 0 20 -4 20 -10z m78 -12 c2 -12 -5 -18 -25 -21 -27 -4 -27
-5 -5 -12 27 -9 29 -25 2 -25 -27 0 -44 34 -30 61 13 24 53 22 58 -3z m116 0
c15 -25 -4 -53 -35 -53 -25 0 -37 30 -25 61 8 20 46 14 60 -8z m234 0 c2 -13
-3 -18 -17 -18 -12 0 -21 -4 -21 -10 0 -5 9 -10 20 -10 11 0 20 -5 20 -11 0
-6 -12 -9 -27 -7 -29 3 -41 32 -29 64 8 21 50 14 54 -8z m80 -20 c2 -22 -1
-38 -7 -38 -6 0 -11 14 -11 30 0 17 -4 30 -10 30 -5 0 -10 -13 -10 -30 0 -16
-4 -30 -10 -30 -5 0 -10 18 -10 41 0 38 1 40 28 37 23 -3 27 -8 30 -40z m86
20 c15 -25 -4 -53 -35 -53 -25 0 -37 30 -25 61 8 20 46 14 60 -8z m36 -8 c0
-20 5 -30 15 -30 10 0 15 10 15 30 0 17 5 30 10 30 6 0 10 -16 10 -35 0 -39
-21 -55 -49 -38 -18 11 -28 73 -12 73 6 0 11 -13 11 -30z m130 -13 c0 -24 -5
-48 -12 -55 -15 -15 -48 -16 -48 -2 0 6 9 10 20 10 27 0 25 18 -2 22 -46 6
-29 68 18 68 22 0 24 -4 24 -43z m254 21 c15 -25 -4 -53 -35 -53 -25 0 -37 30
-25 61 8 20 46 14 60 -8z"/>
<path d="M6730 475 c0 -8 7 -15 15 -15 8 0 15 7 15 15 0 8 -7 15 -15 15 -8 0
-15 -7 -15 -15z"/>
<path d="M6858 463 c7 -3 16 -2 19 1 4 3 -2 6 -13 5 -11 0 -14 -3 -6 -6z"/>
<path d="M6936 441 c-4 -5 -2 -12 3 -15 5 -4 12 -2 15 3 4 5 2 12 -3 15 -5 4
-12 2 -15 -3z"/>
<path d="M7078 463 c7 -3 16 -2 19 1 4 3 -2 6 -13 5 -11 0 -14 -3 -6 -6z"/>
<path d="M7268 463 c7 -3 16 -2 19 1 4 3 -2 6 -13 5 -11 0 -14 -3 -6 -6z"/>
<path d="M7670 450 c0 -11 7 -20 15 -20 8 0 15 9 15 20 0 11 -7 20 -15 20 -8
0 -15 -9 -15 -20z"/>
<path d="M7920 441 c0 -6 5 -13 10 -16 6 -3 10 1 10 9 0 9 -4 16 -10 16 -5 0
-10 -4 -10 -9z"/>
<path d="M8000 450 c0 -11 5 -20 10 -20 6 0 10 9 10 20 0 11 -4 20 -10 20 -5
0 -10 -9 -10 -20z"/>
<path d="M8088 463 c7 -3 16 -2 19 1 4 3 -2 6 -13 5 -11 0 -14 -3 -6 -6z"/>
<path d="M7290 250 c0 -11 7 -20 15 -20 8 0 15 9 15 20 0 11 -7 20 -15 20 -8
0 -15 -9 -15 -20z"/>
<path d="M6800 250 c0 -11 7 -20 15 -20 8 0 15 9 15 20 0 11 -7 20 -15 20 -8
0 -15 -9 -15 -20z"/>
<path d="M7058 263 c7 -3 16 -2 19 1 4 3 -2 6 -13 5 -11 0 -14 -3 -6 -6z"/>
<path d="M7170 250 c0 -11 7 -20 15 -20 8 0 15 9 15 20 0 11 -7 20 -15 20 -8
0 -15 -9 -15 -20z"/>
<path d="M7570 250 c0 -11 7 -20 15 -20 8 0 15 9 15 20 0 11 -7 20 -15 20 -8
0 -15 -9 -15 -20z"/>
<path d="M7732 253 c5 -25 28 -28 28 -4 0 12 -6 21 -16 21 -9 0 -14 -7 -12
-17z"/>
<path d="M7990 250 c0 -11 7 -20 15 -20 8 0 15 9 15 20 0 11 -7 20 -15 20 -8
0 -15 -9 -15 -20z"/>
</g>
</svg>
