<svg xmlns="http://www.w3.org/2000/svg" viewBox="0 0 760 570" role="img" aria-labelledby="title desc">
  <title id="title">Eye-tracking encoder model diagram thumbnail</title>
  <desc id="desc">Diagram-style thumbnail for From Human Reading to NLM Understanding.</desc>
  <rect width="760" height="570" fill="#fbf6df"/>
  <g font-family="Arial, Helvetica, sans-serif" font-size="20" fill="#171717" stroke="#171717" stroke-width="2">
    <defs>
      <marker id="arrow" markerWidth="8" markerHeight="8" refX="7" refY="4" orient="auto">
        <path d="M0,0 L8,4 L0,8 Z" fill="#171717" stroke="none"/>
      </marker>
      <marker id="dasharrow" markerWidth="8" markerHeight="8" refX="7" refY="4" orient="auto">
        <path d="M0,0 L8,4 L0,8 Z" fill="#171717" stroke="none"/>
      </marker>
      <clipPath id="half">
        <rect x="0" y="0" width="640" height="240"/>
      </clipPath>
    </defs>

    <text x="24" y="62">i.)</text>
    <circle cx="92" cy="56" r="30" fill="#f7f7f4"/>
    <text x="80" y="63">PT</text>
    <line x1="122" y1="56" x2="188" y2="56" marker-end="url(#arrow)"/>
    <text x="142" y="44">EYE</text>
    <circle cx="224" cy="56" r="27" fill="#7772f0"/>
    <line x1="251" y1="56" x2="322" y2="56" marker-end="url(#arrow)"/>
    <text x="270" y="44">DST</text>
    <circle cx="350" cy="56" r="27" fill="#ff7b7f"/>

    <text x="398" y="62">ii.)</text>
    <circle cx="472" cy="56" r="30" fill="#f7f7f4"/>
    <text x="460" y="63">PT</text>
    <line x1="502" y1="56" x2="574" y2="56" marker-end="url(#arrow)"/>
    <text x="522" y="44">EYE</text>
    <circle cx="602" cy="56" r="27" fill="#7772f0"/>
    <path d="M602 83 V126" marker-end="url(#arrow)" fill="none"/>
    <text x="550" y="116">DST</text>
    <path d="M541 137 H662 L640 177 H562 Z" fill="#ff7b7f"/>
    <text x="584" y="163">LoRa</text>
    <line x1="629" y1="56" x2="708" y2="56" stroke-dasharray="9 9" marker-end="url(#dasharrow)"/>
    <text x="662" y="35">+</text>
    <text x="662" y="85">-</text>
    <circle cx="725" cy="56" r="27" fill="#ff7b7f"/>
    <path d="M633 137 C660 116 680 88 705 66" stroke-dasharray="9 9" marker-end="url(#dasharrow)" fill="none"/>
    <text x="680" y="109">+</text>
  </g>

  <g font-family="Arial, Helvetica, sans-serif" font-size="20" fill="#171717" stroke="#171717" stroke-width="2">
    <text x="24" y="242">iii.)</text>
    <circle cx="100" cy="234" r="30" fill="#f7f7f4"/>
    <text x="88" y="241">PT</text>
    <line x1="130" y1="234" x2="211" y2="234" marker-end="url(#arrow)"/>
    <text x="152" y="222">EYE</text>
    <line x1="238" y1="234" x2="336" y2="234" marker-end="url(#arrow)"/>
    <text x="270" y="222">DST</text>
    <line x1="364" y1="234" x2="468" y2="234" marker-end="url(#arrow)"/>
    <text x="394" y="222">EYE</text>
    <text x="486" y="236">...</text>
    <line x1="522" y1="234" x2="625" y2="234" marker-end="url(#arrow)"/>
    <text x="548" y="222">DST</text>
    <circle cx="656" cy="234" r="27" fill="#ff7b7f"/>
    <path d="M629 234 A27 27 0 0 1 683 234 Z" fill="#7772f0" stroke="none"/>
    <text x="250" y="264">INTERLEAVED STEPS</text>
  </g>

  <g font-family="Arial, Helvetica, sans-serif" font-size="20" fill="#171717" stroke="#171717" stroke-width="2">
    <text x="24" y="346">iv.)</text>
    <circle cx="100" cy="338" r="30" fill="#f7f7f4"/>
    <text x="88" y="345">PT</text>
    <line x1="130" y1="338" x2="197" y2="338" marker-end="url(#arrow)"/>
    <text x="148" y="326">EYE</text>
    <circle cx="226" cy="338" r="27" fill="#7772f0"/>
    <line x1="253" y1="338" x2="374" y2="338" stroke-dasharray="9 9" marker-end="url(#dasharrow)"/>
    <text x="276" y="326">PREDICT</text>
    <rect x="376" y="296" width="95" height="82" fill="#f7f7f4"/>
    <text x="389" y="322">SILVER</text>
    <text x="389" y="344">LABELS</text>
    <text x="405" y="366">DST</text>
    <line x1="423" y1="378" x2="423" y2="425" stroke-dasharray="9 9" marker-end="url(#dasharrow)"/>
    <circle cx="342" cy="462" r="30" fill="#f7f7f4"/>
    <text x="330" y="469">PT</text>
    <line x1="372" y1="462" x2="492" y2="462" marker-end="url(#arrow)"/>
    <text x="390" y="449">EYE+DST</text>
    <circle cx="522" cy="462" r="27" fill="#ff7b7f"/>
    <path d="M495 462 A27 27 0 0 1 549 462 Z" fill="#7772f0" stroke="none"/>
  </g>
</svg>
