<svg xmlns="http://www.w3.org/2000/svg" viewBox="0 0 640 480" role="img" aria-labelledby="title desc">
  <title id="title">Figure thumbnail for Linguistic Profiling of Transformer Embedding Geometry</title>
  <desc id="desc">Figure-style thumbnail with a dependency tree and embedding geometry diagnostic panels.</desc>
  <defs>
    <marker id="arrow-blue" markerWidth="8" markerHeight="8" refX="7" refY="4" orient="auto">
      <path d="M0 0 L8 4 L0 8 Z" fill="#1d32ff"/>
    </marker>
    <marker id="arrow-black" markerWidth="8" markerHeight="8" refX="7" refY="4" orient="auto">
      <path d="M0 0 L8 4 L0 8 Z" fill="#111"/>
    </marker>
  </defs>
  <rect width="640" height="480" fill="#fbf6df"/>
  <rect x="24" y="22" width="592" height="436" fill="#fffefd" stroke="#4f241f" stroke-width="2"/>
  <g font-family="Georgia, 'Times New Roman', serif" fill="#171717">
    <text x="44" y="56" font-size="24" font-weight="700">Linguistic Profiling of Transformer</text>
    <text x="44" y="84" font-size="24" font-weight="700">Embedding Geometry</text>
    <text x="44" y="110" font-size="15">Lucia Domenichelli, Dominique Brunato, Felice Dell'Orletta</text>
  </g>
  <line x1="44" y1="128" x2="596" y2="128" stroke="#171717" stroke-width="1"/>

  <g transform="translate(40 148)" font-family="Arial, Helvetica, sans-serif">
    <g stroke="#111" stroke-width="2.2" fill="none">
      <path d="M18 20 L122 52"/>
      <path d="M122 52 L22 138"/>
      <path d="M122 52 L70 138"/>
      <path d="M122 52 L118 138"/>
      <path d="M122 52 L170 138"/>
      <path d="M122 52 L250 138"/>
      <path d="M122 52 L292 138"/>
      <path d="M170 138 L150 226"/>
      <path d="M170 138 L190 226"/>
      <path d="M250 138 L220 226"/>
      <path d="M250 138 L250 226"/>
      <path d="M250 138 L280 226"/>
    </g>
    <g fill="#ff1818" stroke="#111" stroke-width="1.4">
      <circle cx="18" cy="20" r="7"/>
      <circle cx="122" cy="52" r="8"/>
      <circle cx="22" cy="138" r="7"/>
      <circle cx="70" cy="138" r="6"/>
      <circle cx="118" cy="138" r="7"/>
      <circle cx="170" cy="138" r="7"/>
      <circle cx="250" cy="138" r="7"/>
      <circle cx="292" cy="138" r="7"/>
      <circle cx="150" cy="226" r="6"/>
      <circle cx="190" cy="226" r="6"/>
      <circle cx="220" cy="226" r="6"/>
      <circle cx="250" cy="226" r="6"/>
      <circle cx="280" cy="226" r="6"/>
    </g>
    <g font-weight="700" fill="#111">
      <text x="0" y="48" font-size="17">&lt;root&gt;</text>
      <text x="130" y="82" font-size="16">different</text>
      <text x="4" y="168" font-size="13">Okinawa</text>
      <text x="60" y="168" font-size="13">is</text>
      <text x="102" y="168" font-size="13">quite</text>
      <text x="156" y="168" font-size="13">rest</text>
      <text x="240" y="168" font-size="13">are</text>
      <text x="282" y="168" font-size="13">.</text>
    </g>
    <g fill="#1239ff" font-weight="700" font-size="11">
      <text x="136" y="102">root</text>
      <text x="134" y="120" fill="#09616b">ADJ</text>
      <text x="8" y="186">nsubj</text>
      <text x="58" y="186">cop</text>
      <text x="96" y="186">advmod</text>
      <text x="154" y="186">obl</text>
      <text x="236" y="186">advcl</text>
      <text x="274" y="186">punct</text>
      <text x="138" y="254">case</text>
      <text x="178" y="254">nmod</text>
      <text x="214" y="254">mark</text>
      <text x="244" y="254">expl</text>
      <text x="274" y="254">nsubj</text>
    </g>
  </g>

  <g transform="translate(358 142)" font-family="Arial, Helvetica, sans-serif" stroke="#1d32ff">
    <rect x="0" y="0" width="228" height="92" rx="5" fill="#fbfbff" stroke-width="1.6"/>
    <text x="88" y="24" font-size="18" font-weight="700" fill="#1d32ff" stroke="none">A. Isotropy</text>
    <g transform="translate(16 34)" stroke="#111" stroke-width="1.6" fill="none">
      <path d="M14 46 V8" marker-end="url(#arrow-black)"/>
      <path d="M14 46 H66" marker-end="url(#arrow-black)"/>
      <ellipse cx="48" cy="30" rx="28" ry="24" stroke="#1d32ff"/>
      <ellipse cx="48" cy="30" rx="24" ry="28" stroke="#1d32ff" transform="rotate(65 48 30)"/>
      <g fill="#1d32ff" stroke="none">
        <circle cx="34" cy="21" r="1.5"/>
        <circle cx="46" cy="39" r="1.5"/>
        <circle cx="55" cy="18" r="1.5"/>
        <circle cx="62" cy="33" r="1.5"/>
        <circle cx="41" cy="29" r="1.5"/>
      </g>
    </g>
    <g transform="translate(128 34)" stroke="#111" stroke-width="1.6" fill="none">
      <path d="M14 46 V8" marker-end="url(#arrow-black)"/>
      <path d="M14 46 H74" marker-end="url(#arrow-black)"/>
      <ellipse cx="54" cy="28" rx="48" ry="16" stroke="#1d32ff" transform="rotate(-12 54 28)"/>
      <g fill="#1d32ff" stroke="none">
        <circle cx="28" cy="28" r="1.4"/>
        <circle cx="48" cy="24" r="1.4"/>
        <circle cx="68" cy="29" r="1.4"/>
        <circle cx="82" cy="21" r="1.4"/>
        <circle cx="58" cy="36" r="1.4"/>
      </g>
    </g>
  </g>

  <g transform="translate(358 244)" font-family="Arial, Helvetica, sans-serif" stroke="#1d32ff">
    <rect x="0" y="0" width="228" height="86" rx="5" fill="#fbfbff" stroke-width="1.6"/>
    <text x="58" y="20" font-size="18" font-weight="700" fill="#1d32ff" stroke="none">B. Linear ID</text>
    <g transform="translate(20 34)" stroke="#111" fill="none">
      <path d="M0 40 H76"/>
      <path d="M0 40 V0"/>
      <g stroke="#1d32ff" stroke-width="2">
        <path d="M6 40 V4"/>
        <path d="M12 40 V12"/>
        <path d="M18 40 V18"/>
        <path d="M24 40 V24"/>
        <path d="M30 40 V29"/>
        <path d="M36 40 V32"/>
        <path d="M42 40 V34"/>
      </g>
      <path d="M45 4 H6 V40" stroke="#ff2828" stroke-dasharray="5 4"/>
    </g>
    <g transform="translate(146 48)" stroke="#1d32ff" stroke-width="2">
      <circle cx="20" cy="12" r="3" fill="#1d32ff"/>
      <path d="M20 12 L20 -20" marker-end="url(#arrow-blue)"/>
      <path d="M20 12 L46 12" marker-end="url(#arrow-blue)"/>
      <path d="M20 12 L-6 30" marker-end="url(#arrow-blue)"/>
      <path d="M20 12 L44 36" marker-end="url(#arrow-blue)"/>
      <path d="M20 12 L-8 -8" marker-end="url(#arrow-blue)"/>
    </g>
  </g>

  <g transform="translate(358 340)" font-family="Arial, Helvetica, sans-serif" stroke="#1d32ff">
    <rect x="0" y="0" width="228" height="86" rx="5" fill="#fbfbff" stroke-width="1.6"/>
    <text x="48" y="20" font-size="17" font-weight="700" fill="#1d32ff" stroke="none">C. Nonlinear ID</text>
    <g transform="translate(18 36)" fill="none" stroke-width="1.4">
      <path d="M0 36 C18 30 34 38 52 30 C70 22 82 28 96 18"/>
      <path d="M0 24 C18 18 34 26 52 18 C70 10 82 16 96 6"/>
      <path d="M8 12 V44"/>
      <path d="M26 10 V42"/>
      <path d="M44 12 V38"/>
      <path d="M62 8 V34"/>
      <path d="M80 4 V30"/>
    </g>
    <path d="M122 54 C136 34 156 26 174 48" fill="none" stroke="#111" stroke-width="1.4"/>
    <g fill="#1d32ff" stroke="#111" stroke-width="1">
      <circle cx="136" cy="44" r="3"/>
      <circle cx="152" cy="34" r="3"/>
      <circle cx="170" cy="48" r="3"/>
      <circle cx="158" cy="60" r="3"/>
    </g>
    <g stroke="#111" stroke-width="1.2">
      <path d="M136 44 L152 34 L170 48 L158 60 Z" fill="none"/>
      <circle cx="154" cy="48" r="30" fill="none"/>
    </g>
  </g>
</svg>
